{"title":"De l'amour aka All about Love (2001) x264 DVDRIP","uid":11766355,"size":1729057146,"categoryP":"video","categoryS":"movies","magnet":"?xt=urn:btih:cf411e2f4a91c2480fd7e73fc8880c94ea6d66dc&amp;dn=De+l%27amour+aka+All+about+Love+%282001%29+x264+DVDRIP&amp;tr=udp%3A%2F%2Ftracker.openbittorrent.com%3A80&amp;tr=udp%3A%2F%2Fopen.demonii.com%3A1337&amp;tr=udp%3A%2F%2Ftracker.coppersurfer.tk%3A6969&amp;tr=udp%3A%2F%2Fexodus.desync.com%3A6969","seeders":0,"leechers":1,"uploader":null,"files":2,"time":1426864868,"description":"SYNOPSIS: Cute and persuasive, with a loving family, boyfriend and best friend, 20-year-old Maria (Virginie Ledoyen) is used to getting her own way. After just one day of assembling chair cushions at a factory, Maria announces her hands ache and she'd rather open a restaurant.\n\nCaught red-handed, Marie refuses to admit to shoplifting a lingerie item, and ends up in police custody. In a shocking yet believable development, Maria confronts the toughest situation of her young, relatively charmed life.\n\nLedoyen brings a perfect blend of naivete and girlish defiance to the tailor-made role of Maria. Other thesps, who include co-scripter Yazid Ait as her serious-minded boyfriend and popular rap star Stomy Bugsy as the latter's drug-dealing best friend, lend all the shades of gray required to make their characters feel real at every turn.\n\nBruno Coulais delivers a score that starts out small and finishes in full-blown urgency, like the imagery it accompanies.\n\nRichet does an even-handed job of presenting the complexity of lifestyle choices in the industrial suburbs where upward mobility is possible but elusive, and people of many ethnicities are intimate neighbors.\n\nIMDB: http://www.imdb.com/title/tt0269138/\n\n\nEncoding info:\n\nFormat                                   : Matroska\nFormat version                           : Version 2\nFile size                                : 1.61 GiB\nDuration                                 : 1h 17mn\nOverall bit rate                         : 2 988 Kbps\nWriting application                      : HandBrake 0.10.1 2015030800\nWriting library                          : Lavf55.12.0\n\nVideo\nID                                       : 1\nFormat                                   : AVC\nFormat/Info                              : Advanced Video Codec\nFormat profile                           : &lt;a class=&quot;__cf_email__&quot; href=&quot;/cdn-cgi/l/email-protection&quot; data-cfemail=&quot;b1fcd0d8dff1fd859f81&quot;&gt;[email&amp;#160;protected]&lt;/a&gt;&lt;script cf-hash='f9e31' type=&quot;text/javascript&quot;&gt;\n/* &lt;![CDATA[ */!function(){try{var t=&quot;currentScript&quot;in document?document.currentScript:function(){for(var t=document.getElementsByTagName(&quot;script&quot;),e=t.length;e--;)if(t[e].getAttribute(&quot;cf-hash&quot;))return t[e]}();if(t&amp;&amp;t.previousSibling){var e,r,n,i,c=t.previousSibling,a=c.getAttribute(&quot;data-cfemail&quot;);if(a){for(e=&quot;&quot;,r=parseInt(a.substr(0,2),16),n=2;a.length-n;n+=2)i=parseInt(a.substr(n,2),16)^r,e+=String.fromCharCode(i);e=document.createTextNode(e),c.parentNode.replaceChild(e,c)}}}catch(u){}}();/* ]]&gt; */&lt;/script&gt;\nFormat settings, CABAC                   : Yes\nFormat settings, ReFrames                : 3 frames\nCodec ID                                 : V_MPEG4/ISO/AVC\nDuration                                 : 1h 17mn\nBit rate                                 : 2 737 Kbps\nWidth                                    : 720 pixels\nHeight                                   : 480 pixels\nDisplay aspect ratio                     : 4:3\nFrame rate mode                          : Constant\nFrame rate                               : 29.970 fps\nStandard                                 : NTSC\nColor space                              : YUV\nChroma subsampling                       : 4:2:0\nBit depth                                : 8 bits\nScan type                                : Progressive\nBits/(Pixel*Frame)                       : 0.264\nStream size                              : 1.47 GiB (92%)\nDefault                                  : Yes\nForced                                   : No\nColor primaries                          : BT.601 NTSC\nTransfer characteristics                 : BT.709\nMatrix coefficients                      : BT.601\nColor range                              : Limited\n\nAudio\nID                                       : 2\nFormat                                   : AC-3\nFormat/Info                              : Audio Coding 3\nMode extension                           : CM (complete main)\nFormat settings, Endianness              : Big\nCodec ID                                 : A_AC3\nDuration                                 : 1h 17mn\nBit rate mode                            : Constant\nBit rate                                 : 192 Kbps\nChannel(s)                               : 2 channels\nChannel positions                        : Front: L R\nSampling rate                            : 48.0 KHz\nBit depth                                : 16 bits\nCompression mode                         : Lossy\nStream size                              : 106 MiB (6%)\nTitle                                    : Stereo\nLanguage                                 : French\nDefault                                  : Yes\nForced                                   : No\n\nEnlgish subtitles included","torrent":{"xt":"urn:btih:cf411e2f4a91c2480fd7e73fc8880c94ea6d66dc","amp;dn":"De+l%27amour+aka+All+about+Love+%282001%29+x264+DVDRIP","amp;tr":["udp%3A%2F%2Ftracker.openbittorrent.com%3A80","udp%3A%2F%2Fopen.demonii.com%3A1337","udp%3A%2F%2Ftracker.coppersurfer.tk%3A6969","udp%3A%2F%2Fexodus.desync.com%3A6969"],"infoHash":"cf411e2f4a91c2480fd7e73fc8880c94ea6d66dc","infoHashBuffer":{"type":"Buffer","data":[207,65,30,47,74,145,194,72,15,215,231,63,200,136,12,148,234,109,102,220]},"announce":[],"urlList":[]}}